<svg xmlns="http://www.w3.org/2000/svg" viewBox="0 0 512 512" x="0px" y="0px" fill="#7f79f6"><path d="M81.95,182.37c1.81,.91,3.73,1.34,5.62,1.34,4.57,0,8.97-2.52,11.17-6.87,14.6-28.93,37.3-53.57,64.81-70.64l-2.71,15.53c-1.18,6.8,3.37,13.27,10.17,14.46,.73,.13,1.45,.19,2.16,.19,5.96,0,11.24-4.28,12.3-10.36l7.41-42.51c.57-3.27-.18-6.62-2.09-9.34-1.91-2.71-4.81-4.55-8.08-5.12l-42.51-7.4c-6.8-1.18-13.27,3.37-14.46,10.17-1.18,6.8,3.37,13.27,10.17,14.46l9.74,1.7c-29.26,19.31-53.42,46.25-69.23,77.6-3.11,6.16-.63,13.68,5.53,16.79Z"></path><path d="M176.84,413.26c-29.07-14.66-53.8-37.51-70.87-65.18l16.65,2.9c6.81,1.19,13.27-3.37,14.46-10.17,1.18-6.8-3.37-13.28-10.17-14.46l-45.24-7.88c-6.81-1.19-13.28,3.37-14.46,10.17l-7.88,45.24c-1.18,6.8,3.37,13.28,10.17,14.46,.73,.13,1.45,.19,2.16,.19,5.96,0,11.24-4.28,12.3-10.36l2.47-14.19c19.41,30.33,46.95,55.36,79.15,71.6,1.81,.91,3.73,1.34,5.62,1.34,4.57,0,8.97-2.51,11.17-6.87,3.11-6.16,.63-13.68-5.53-16.79Z"></path><path d="M430.05,329.63c-6.16-3.11-13.68-.63-16.79,5.53-14.72,29.17-37.68,53.99-65.49,71.06l2.55-14.62c1.18-6.8-3.37-13.28-10.17-14.46-6.8-1.19-13.27,3.37-14.46,10.17l-7.16,41.09c-1.18,6.8,3.37,13.28,10.17,14.46l41.09,7.16c.73,.13,1.45,.19,2.16,.19,5.96,0,11.24-4.28,12.3-10.36,1.18-6.8-3.37-13.28-10.17-14.46l-7.77-1.35c29.28-19.31,53.45-46.26,69.27-77.62,3.11-6.16,.63-13.68-5.53-16.79Z"></path><path d="M335.16,98.74c28.76,14.51,53.28,37.03,70.33,64.31l-16.92-2.95c-6.8-1.18-13.27,3.37-14.46,10.17-1.18,6.8,3.37,13.27,10.17,14.46l46.05,8.02c.73,.13,1.45,.19,2.16,.19,5.96,0,11.24-4.28,12.3-10.36l8.02-46.05c1.18-6.8-3.37-13.28-10.17-14.46-6.8-1.18-13.27,3.37-14.46,10.17l-2.72,15.62c-19.4-30.26-46.9-55.23-79.04-71.44-6.16-3.11-13.68-.63-16.79,5.53-3.11,6.16-.63,13.68,5.53,16.79Z"></path><path d="M114.52,256c0-25.94-21.1-47.05-47.05-47.05s-47.05,21.1-47.05,47.05,21.1,47.05,47.05,47.05,47.05-21.1,47.05-47.05Zm-69.09,0c0-12.16,9.89-22.05,22.05-22.05s22.05,9.89,22.05,22.05-9.89,22.05-22.05,22.05-22.05-9.89-22.05-22.05Z"></path><path d="M256,397.48c-25.94,0-47.05,21.1-47.05,47.05s21.1,47.05,47.05,47.05,47.05-21.1,47.05-47.05-21.1-47.05-47.05-47.05Zm0,69.09c-12.16,0-22.05-9.89-22.05-22.05s9.89-22.05,22.05-22.05,22.05,9.89,22.05,22.05-9.89,22.05-22.05,22.05Z"></path><path d="M256,114.52c25.94,0,47.05-21.1,47.05-47.05s-21.1-47.05-47.05-47.05-47.05,21.1-47.05,47.05,21.1,47.05,47.05,47.05Zm0-69.09c12.16,0,22.05,9.89,22.05,22.05s-9.89,22.05-22.05,22.05-22.05-9.89-22.05-22.05,9.89-22.05,22.05-22.05Z"></path><path d="M444.52,208.95c-25.94,0-47.05,21.1-47.05,47.05s21.1,47.05,47.05,47.05,47.05-21.1,47.05-47.05-21.1-47.05-47.05-47.05Zm0,69.09c-12.16,0-22.05-9.89-22.05-22.05s9.89-22.05,22.05-22.05,22.05,9.89,22.05,22.05-9.89,22.05-22.05,22.05Z"></path><path d="M346.04,342c7.86-2.1,14.42-7.14,18.49-14.19l7.93-13.73c4.07-7.04,5.15-15.25,3.04-23.11-2.11-7.86-7.14-14.42-14.19-18.49l-9.2-5.31c.43-3.71,.64-7.44,.64-11.17s-.22-7.47-.64-11.17l9.2-5.31c14.54-8.4,19.54-27.06,11.14-41.6l-7.93-13.73c-8.4-14.54-27.06-19.54-41.59-11.15l-9.2,5.31c-6.01-4.49-12.48-8.23-19.36-11.19v-10.6c0-16.79-13.66-30.45-30.45-30.45h-15.85c-16.79,0-30.45,13.66-30.45,30.45v10.6c-6.88,2.96-13.34,6.7-19.36,11.19l-9.2-5.31c-14.54-8.4-33.2-3.4-41.59,11.15l-7.93,13.73c-8.4,14.54-3.4,33.2,11.14,41.6l9.2,5.31c-.43,3.71-.64,7.44-.64,11.17s.22,7.47,.64,11.17l-9.2,5.31c-7.04,4.07-12.08,10.63-14.19,18.49-2.1,7.86-1.02,16.06,3.04,23.11l7.93,13.73c4.07,7.04,10.63,12.08,18.49,14.19,7.85,2.11,16.06,1.03,23.1-3.04l9.2-5.31c6.01,4.49,12.48,8.23,19.36,11.19v10.6c0,16.79,13.66,30.45,30.45,30.45h15.85c16.79,0,30.45-13.66,30.45-30.45v-10.6c6.87-2.96,13.34-6.7,19.36-11.19l9.2,5.31c7.04,4.07,15.25,5.15,23.11,3.04Zm-41.92-32.77c-7.6,6.87-16.37,11.94-26.07,15.07-5.16,1.67-8.66,6.47-8.66,11.9v19.25c0,3-2.45,5.45-5.45,5.45h-15.85c-3,0-5.45-2.44-5.45-5.45v-19.25c0-5.43-3.5-10.23-8.66-11.9-9.7-3.13-18.47-8.2-26.07-15.07-2.36-2.13-5.36-3.23-8.39-3.23-2.14,0-4.3,.55-6.25,1.67l-16.69,9.63c-1.7,.98-3.32,.76-4.13,.54-.81-.22-2.33-.84-3.31-2.54l-7.93-13.73c-.98-1.7-.76-3.32-.54-4.13,.22-.81,.84-2.33,2.54-3.31l16.67-9.63c4.69-2.71,7.11-8.14,5.97-13.44-1.05-4.93-1.59-10.01-1.59-15.07s.54-10.14,1.59-15.07c1.13-5.3-1.28-10.73-5.97-13.44l-16.67-9.62c-2.6-1.5-3.5-4.84-1.99-7.44l7.93-13.73c1.5-2.6,4.84-3.5,7.44-2l16.68,9.63c4.7,2.71,10.61,2.09,14.64-1.56,7.6-6.87,16.37-11.94,26.07-15.07,5.16-1.67,8.66-6.47,8.66-11.9v-19.25c0-3,2.45-5.45,5.45-5.45h15.85c3,0,5.45,2.44,5.45,5.45v19.25c0,5.43,3.5,10.23,8.66,11.9,9.7,3.13,18.47,8.2,26.07,15.07,4.02,3.64,9.94,4.27,14.64,1.56l16.68-9.63c2.6-1.5,5.94-.61,7.44,2l7.93,13.73c1.5,2.6,.61,5.94-1.99,7.44l-16.67,9.63c-4.69,2.71-7.11,8.14-5.97,13.44,1.05,4.93,1.59,10.01,1.59,15.07s-.54,10.14-1.59,15.07c-1.13,5.3,1.28,10.73,5.97,13.44l16.67,9.63c1.7,.98,2.32,2.49,2.54,3.31,.22,.81,.44,2.43-.54,4.14l-7.93,13.73c-.98,1.7-2.5,2.32-3.31,2.54-.81,.22-2.43,.44-4.14-.54l-16.68-9.63c-4.7-2.71-10.61-2.08-14.63,1.55Z"></path><path d="M256,205.81c-27.67,0-50.19,22.52-50.19,50.19s22.52,50.19,50.19,50.19,50.19-22.52,50.19-50.19-22.52-50.19-50.19-50.19Zm0,75.38c-13.89,0-25.19-11.3-25.19-25.19s11.3-25.19,25.19-25.19,25.19,11.3,25.19,25.19-11.3,25.19-25.19,25.19Z"></path></svg>
